[CENTER]
[IMG]http://s17.postimage.org/4dy0lq9sf/DBD_Colorpack_Preview.png[/IMG]
[B][SIZE=5][COLOR="blue"]Inkaar[/COLOR][COLOR="red"] *2013*[/COLOR]
[COLOR="green"]"HDRip - 1CDRip - XviD - MP3"[/COLOR]
[COLOR="Orange"]..: eXclusive Release ::..[/COLOR]
[COLOR="#008000"][COLOR="purple"]..:: deep1007 ::..[/COLOR][/COLOR][/SIZE][/B]
[IMG]http://www.moviezadda.com/wp-content/uploads/2012/11/Inkaar-Poster-1.png[/IMG]

[B][COLOR="brown"][SIZE=6]Media Info[/SIZE][/COLOR][/B]
[Code]
General
Complete name                            : Inkaar (2013).avi
Format                                   : AVI
Format/Info                              : Audio Video Interleave
File size                                : 724 MiB
Duration                                 : 2h 0mn
Overall bit rate                         : 839 Kbps
Writing library                          : VirtualDub build 32842/release

Video
ID                                       : 0
Format                                   : MPEG-4 Visual
Format profile                           : Advanced Simple@L5
Format settings, BVOP                    : 2
Format settings, QPel                    : No
Format settings, GMC                     : No warppoints
Format settings, Matrix                  : Default (H.263)
Muxing mode                              : Packed bitstream
Codec ID                                 : XVID
Codec ID/Hint                            : XviD
Duration                                 : 2h 0mn
Bit rate                                 : 749 Kbps
Width                                    : 640 pixels
Height                                   : 272 pixels
Display aspect ratio                     : 2.35:1
Frame rate                               : 25.000 fps
Color space                              : YUV
Chroma subsampling                       : 4:2:0
Bit depth                                : 8 bits
Scan type                                : Progressive
Compression mode                         : Lossy
Bits/(Pixel*Frame)                       : 0.172
Stream size                              : 647 MiB (89%)
Writing library                          : XviD 64

Audio
ID                                       : 1
Format                                   : MPEG Audio
Format version                           : Version 1
Format profile                           : Layer 3
Mode                                     : Joint stereo
Mode extension                           : MS Stereo
Codec ID                                 : 55
Codec ID/Hint                            : MP3
Duration                                 : 2h 0mn
Bit rate mode                            : Constant
Bit rate                                 : 80.0 Kbps
Channel(s)                               : 2 channels
Sampling rate                            : 32.0 KHz
Compression mode                         : Lossy
Stream size                              : 69.1 MiB (10%)
Alignment                                : Split accross interleaves
Interleave, duration                     : 40 ms (1.00 video frame)
Interleave, preload duration             : 500 ms
Writing library                          : LAME3.99r
Encoding settings                        : -m j -V 4 -q

==================================
[B]All Credits Goes To : -=: deep1007 :=-[/B]
==================================
ME ON
[B][COLOR="ORANGE"][SIZE=4]DON'T FORGET TO SAY THANKS TO THE [SIZE=5][COLOR="#FF0000"]UPLODER[/COLOR][/SIZE], IF YOU LIKE MY POST!
IF YOU DON'T REPLY, THE POST WILL DIE[/SIZE]
[/COLOR][/B]
[/CENTER]